<?xml version="1.0" encoding="utf-8"?>
<!-- Generator: Adobe Illustrator 24.0.1, SVG Export Plug-In . SVG Version: 6.00 Build 0)  -->
<svg version="1.1" id="Laag_1" xmlns="http://www.w3.org/2000/svg" xmlns:xlink="http://www.w3.org/1999/xlink" x="0px" y="0px"
	 viewBox="0 0 24 24" style="enable-background:new 0 0 24 24;" xml:space="preserve">
<style type="text/css">
	.st0{fill:#90A2B7;}
</style>
<g>
	<path class="st0" d="M21.7,3.8c-1.3-1.3-3-2-4.8-2c-1.8,0-3.5,0.7-4.8,2l0,0l0,0c-1.3-1.3-3-2-4.8-2c-1.8,0-3.5,0.7-4.8,2
		c-1.3,1.3-2,3-2,4.8c0,1.8,0.7,3.5,2,4.8L12,23l9.6-9.6c1.3-1.3,2-3,2-4.8S23,5.1,21.7,3.8z M12,21.5l-8.9-8.9
		c-1.1-1.1-1.7-2.5-1.7-4c0-1.5,0.6-3,1.7-4c1.1-1.1,2.5-1.7,4-1.7c1.5,0,3,0.6,4,1.7l0.8,0.8l0.8-0.8c1.1-1.1,2.5-1.7,4-1.7
		c1.5,0,3,0.6,4,1.7c1.1,1.1,1.7,2.5,1.7,4c0,1.5-0.6,3-1.7,4L12,21.5z"/>
</g>
</svg>
